<svg width="36" height="36" viewBox="0 0 36 36" fill="none" xmlns="http://www.w3.org/2000/svg">
<g clip-path="url(#clip0_26444_7692)">
<path d="M32.4843 26.7892C32.0062 27.0423 31.514 27.2673 31.0078 27.4501C29.3906 28.0548 27.689 28.3642 25.9593 28.3642C19.3078 28.3642 13.514 23.7938 13.514 17.9157C13.5281 16.3126 14.414 14.836 15.8203 14.0767C9.80151 14.3298 8.25464 20.6017 8.25464 24.272C8.25464 34.6642 17.8312 35.7188 19.8984 35.7188C21.0093 35.7188 22.6828 35.3954 23.6953 35.072L23.8781 35.0157C27.7593 33.6798 31.05 31.0642 33.2437 27.5907C33.4125 27.3235 33.3281 26.986 33.075 26.8173C32.8921 26.7048 32.6671 26.6907 32.4843 26.7892Z" fill="white"/>
<path opacity="0.35" d="M32.4843 26.7892C32.0062 27.0423 31.514 27.2673 31.0078 27.4501C29.3906 28.0548 27.689 28.3642 25.9593 28.3642C19.3078 28.3642 13.514 23.7938 13.514 17.9157C13.5281 16.3126 14.414 14.836 15.8203 14.0767C9.80151 14.3298 8.25464 20.6017 8.25464 24.272C8.25464 34.6642 17.8312 35.7188 19.8984 35.7188C21.0093 35.7188 22.6828 35.3954 23.6953 35.072L23.8781 35.0157C27.7593 33.6798 31.05 31.0642 33.2437 27.5907C33.4125 27.3235 33.3281 26.986 33.075 26.8173C32.8921 26.7048 32.6671 26.6907 32.4843 26.7892Z" fill="white"/>
<path d="M14.864 33.9471C13.6125 33.1736 12.5296 32.1471 11.6718 30.9518C7.9734 25.8893 9.08433 18.7877 14.1468 15.0893C14.6812 14.7096 15.2296 14.358 15.8203 14.0768C16.2562 13.8658 17.0015 13.5002 18 13.5143C19.4203 13.5283 20.7562 14.2033 21.614 15.3424C22.1765 16.1018 22.5 17.0158 22.514 17.9721C22.514 17.9439 25.9593 6.77832 11.264 6.77832C5.09058 6.77832 0.0140212 12.6424 0.0140212 17.7752C-0.0141038 20.4893 0.576521 23.1893 1.71558 25.6502C5.59683 33.9189 15.0468 37.9689 23.7093 35.0861C20.7421 36.0143 17.5078 35.6064 14.864 33.9471Z" fill="white"/>
<g opacity="0.41" filter="url(#filter0_d_26444_7692)">
<path d="M14.864 33.9471C13.6125 33.1736 12.5296 32.1471 11.6718 30.9518C7.9734 25.8893 9.08433 18.7877 14.1468 15.0893C14.6812 14.7096 15.2296 14.358 15.8203 14.0768C16.2562 13.8658 17.0015 13.5002 18 13.5143C19.4203 13.5283 20.7562 14.2033 21.614 15.3424C22.1765 16.1018 22.5 17.0158 22.514 17.9721C22.514 17.9439 25.9593 6.77832 11.264 6.77832C5.09058 6.77832 0.0140212 12.6424 0.0140212 17.7752C-0.0141038 20.4893 0.576521 23.1893 1.71558 25.6502C5.59683 33.9189 15.0468 37.9689 23.7093 35.0861C20.7421 36.0143 17.5078 35.6064 14.864 33.9471Z" fill="white"/>
</g>
<path d="M21.4172 20.9391C21.3047 21.0797 20.9531 21.2906 20.9531 21.7406C20.9531 22.1063 21.1922 22.4578 21.6141 22.7531C23.6391 24.1594 27.45 23.9766 27.4641 23.9766C28.9688 23.9766 30.4313 23.5688 31.725 22.8094C34.3688 21.2625 36 18.4359 36 15.3703C36.0422 12.2203 34.875 10.125 34.4109 9.19688C31.4297 3.36094 24.9891 0 18 0C8.15625 0 0.140625 7.90312 0 17.7469C0.0703125 12.6141 5.175 8.46562 11.25 8.46562C11.7422 8.46562 14.5547 8.50781 17.1562 9.88594C19.4484 11.0953 20.6578 12.5437 21.4875 13.9922C22.3594 15.4969 22.5141 17.3813 22.5141 18.1406C22.5141 18.8859 22.1344 20.0109 21.4172 20.9391Z" fill="white"/>
<g filter="url(#filter1_d_26444_7692)">
<path d="M21.4172 20.9391C21.3047 21.0797 20.9531 21.2906 20.9531 21.7406C20.9531 22.1063 21.1922 22.4578 21.6141 22.7531C23.6391 24.1594 27.45 23.9766 27.4641 23.9766C28.9688 23.9766 30.4313 23.5688 31.725 22.8094C34.3688 21.2625 36 18.4359 36 15.3703C36.0422 12.2203 34.875 10.125 34.4109 9.19688C31.4297 3.36094 24.9891 0 18 0C8.15625 0 0.140625 7.90312 0 17.7469C0.0703125 12.6141 5.175 8.46562 11.25 8.46562C11.7422 8.46562 14.5547 8.50781 17.1562 9.88594C19.4484 11.0953 20.6578 12.5437 21.4875 13.9922C22.3594 15.4969 22.5141 17.3813 22.5141 18.1406C22.5141 18.8859 22.1344 20.0109 21.4172 20.9391Z" fill="white"/>
</g>
</g>
<defs>
<filter id="filter0_d_26444_7692" x="-3.98694" y="6.77832" width="31.6963" height="37.2329" filterUnits="userSpaceOnUse" color-interpolation-filters="sRGB">
<feFlood flood-opacity="0" result="BackgroundImageFix"/>
<feColorMatrix in="SourceAlpha" type="matrix" values="0 0 0 0 0 0 0 0 0 0 0 0 0 0 0 0 0 0 127 0" result="hardAlpha"/>
<feOffset dy="4"/>
<feGaussianBlur stdDeviation="2"/>
<feComposite in2="hardAlpha" operator="out"/>
<feColorMatrix type="matrix" values="0 0 0 0 0 0 0 0 0 0 0 0 0 0 0 0 0 0 0.25 0"/>
<feBlend mode="normal" in2="BackgroundImageFix" result="effect1_dropShadow_26444_7692"/>
<feBlend mode="normal" in="SourceGraphic" in2="effect1_dropShadow_26444_7692" result="shape"/>
</filter>
<filter id="filter1_d_26444_7692" x="-4" y="0" width="44.0011" height="31.9844" filterUnits="userSpaceOnUse" color-interpolation-filters="sRGB">
<feFlood flood-opacity="0" result="BackgroundImageFix"/>
<feColorMatrix in="SourceAlpha" type="matrix" values="0 0 0 0 0 0 0 0 0 0 0 0 0 0 0 0 0 0 127 0" result="hardAlpha"/>
<feOffset dy="4"/>
<feGaussianBlur stdDeviation="2"/>
<feComposite in2="hardAlpha" operator="out"/>
<feColorMatrix type="matrix" values="0 0 0 0 0 0 0 0 0 0 0 0 0 0 0 0 0 0 0.25 0"/>
<feBlend mode="normal" in2="BackgroundImageFix" result="effect1_dropShadow_26444_7692"/>
<feBlend mode="normal" in="SourceGraphic" in2="effect1_dropShadow_26444_7692" result="shape"/>
</filter>
<clipPath id="clip0_26444_7692">
<rect width="36" height="36" fill="white"/>
</clipPath>
</defs>
</svg>
