<svg width="36" height="36" viewBox="0 0 36 36" fill="none" xmlns="http://www.w3.org/2000/svg">
<path d="M15.5 32C19.0899 32 22 29.5376 22 26.5C22 23.4624 19.0899 21 15.5 21C11.9101 21 9 23.4624 9 26.5C9 29.5376 11.9101 32 15.5 32Z" fill="white" stroke="white" stroke-linecap="round" stroke-linejoin="round"/>
<path d="M22.0382 28.935C22.0382 28.935 26.5269 28.1114 26.5269 31.875H12.3929C7.75516 31.875 3.99548 28.1153 3.99548 23.4775C3.99548 21.3016 4.81973 19.3159 6.18068 17.8273C8.81311 14.9476 10.0058 13.9316 10.0058 11.5462C10.0058 9.16073 7.04086 7.70302 3.99548 9.55837C6.60443 5.00843 8.68058 4.125 12.9213 4.125C17.162 4.125 19.1498 7.65892 19.1498 10.7511C19.1498 16.8913 9.25193 17.4214 9.25193 26.4387" fill="white"/>
<path d="M22.0382 28.935C22.0382 28.935 26.5269 28.1114 26.5269 31.875H12.3929C7.75516 31.875 3.99548 28.1153 3.99548 23.4775C3.99548 21.3016 4.81973 19.3159 6.18068 17.8273C8.81311 14.9476 10.0058 13.9316 10.0058 11.5462C10.0058 9.16072 7.04086 7.70302 3.99548 9.55837C6.60443 5.00843 8.68058 4.125 12.9213 4.125C17.162 4.125 19.1498 7.65892 19.1498 10.7511C19.1498 16.8913 9.25193 17.4214 9.25193 26.4387" stroke="white" stroke-linecap="round" stroke-linejoin="round"/>
<path d="M22.0383 28.9352C22.6175 27.9301 22.9488 26.7641 22.9488 25.5208C22.9488 21.7385 19.8827 18.6724 16.1004 18.6724C13.6924 18.6724 11.5747 19.9152 10.3536 21.7943" fill="white"/>
<path d="M22.0383 28.9352C22.6175 27.9301 22.9488 26.7641 22.9488 25.5208C22.9488 21.7385 19.8827 18.6724 16.1004 18.6724C13.6924 18.6724 11.5747 19.9152 10.3536 21.7943" stroke="white" stroke-linecap="round" stroke-linejoin="round"/>
<path d="M13.606 19.1407C17.5596 16.3612 23.0371 17.4656 26.5269 20.7786C30.5467 20.0718 32.0044 22.5456 32.0044 22.5456C30.2947 22.412 28.2294 23.0378 26.864 23.5533C25.9843 23.8855 24.9936 23.6578 24.3619 22.9611C21.6675 19.9894 17.5126 17.2717 13.606 19.1407Z" fill="white" stroke="white" stroke-linecap="round" stroke-linejoin="round"/>
<path d="M17.2355 17.6798C17.2355 17.6798 19.3266 15.5327 23.9648 13.048C23.7881 10.7951 23.8986 9.95027 25.025 9.24902C27.0128 9.75152 27.4104 12.1203 27.4104 12.1203C31.0769 13.3572 32.5346 18.3488 31.1652 19.0556C29.7959 19.7624 25.3598 19.2479 22.6507 18.3203" fill="white"/>
<path d="M17.2355 17.6798C17.2355 17.6798 19.3266 15.5327 23.9648 13.048C23.7881 10.7951 23.8986 9.95027 25.025 9.24902C27.0128 9.75152 27.4104 12.1203 27.4104 12.1203C31.0769 13.3572 32.5346 18.3488 31.1652 19.0556C29.7959 19.7624 25.3598 19.2479 22.6507 18.3203" stroke="white" stroke-linecap="round" stroke-linejoin="round"/>
<path d="M14.6883 28.4081C15.776 28.4081 16.6577 27.5263 16.6577 26.4387C16.6577 25.351 15.776 24.4692 14.6883 24.4692C13.6006 24.4692 12.7189 25.351 12.7189 26.4387C12.7189 27.5263 13.6006 28.4081 14.6883 28.4081Z" fill="white" stroke="white" stroke-linecap="round" stroke-linejoin="round"/>
</svg>
